# xmcd CD database file
#
# Track frame offsets:
#	150
#	10693
#	25042
#	39848
#	51851
#	62758
#	75857
#	87044
#	97832
#	111446
#	122791
#	132557
#	143115
#	159357
#	171331
#	184865
#	200810
#	213597
#	225142
#	239258
#
# Disc length: 3394 seconds
#
# Revision: 0
# Processed by: cddbd v1.5.2PL0 Copyright (c) Steve Scherf et al.
# Submitted via: CDex 1.70beta2
#
DISCID=fe0d4014
DTITLE=Pride,Charley - The Happiness Of Having You - Sunday Morning With Charley Pride
DYEAR=2016
DGENRE=Country
TTITLE0=The Happiness Of Having You
TTITLE1=I Can't Keep My Hands Off Of You
TTITLE2=Everything I Am
TTITLE3=My Eyes Can Only See As Far As You
TTITLE4=I've Got A Woman To Lean On
TTITLE5=Right Back Missing You Again
TTITLE6=Help Me Make It Through The Night
TTITLE7=Oklahoma Morning
TTITLE8=Everything She Touches Turns To Love
TTITLE9=Signs Of Love
TTITLE10=I Don't Deserve A Mansion
TTITLE11=Be Grateful
TTITLE12=He's The Man
TTITLE13=In Jesus' Name I Pray
TTITLE14=Without Mama Here
TTITLE15=Little Delta Church
TTITLE16=Next Year Finally Came
TTITLE17=Jesus Is Your Saviour, Child
TTITLE18=He Took My Place
TTITLE19=Brush Arbor Meeting
EXTD=YEAR: 2016
EXTT0=
EXTT1=
EXTT2=
EXTT3=
EXTT4=
EXTT5=
EXTT6=
EXTT7=
EXTT8=
EXTT9=
EXTT10=
EXTT11=
EXTT12=
EXTT13=
EXTT14=
EXTT15=
EXTT16=
EXTT17=
EXTT18=
EXTT19=
PLAYORDER=
